SplineFontDB: 3.0
FontName: BulmerStM
FullName: Sorts Mill Bulmer
FamilyName: Sorts Mill Bulmer
Weight: Regular
Copyright: Created by trashman with FontForge 2.0 (http://fontforge.sf.net)
UComments: "2010-10-5: Created." 
Version: 001.000
ItalicAngle: 0
UnderlinePosition: -100
UnderlineWidth: 50
Ascent: 680
Descent: 320
LayerCount: 3
Layer: 0 0 "Back"  1
Layer: 1 0 "Fore"  0
Layer: 2 0 "backup"  0
XUID: [1021 658 797806517 5336769]
OS2Version: 0
OS2_WeightWidthSlopeOnly: 0
OS2_UseTypoMetrics: 1
CreationTime: 1286303174
ModificationTime: 1286447490
OS2TypoAscent: 0
OS2TypoAOffset: 1
OS2TypoDescent: 0
OS2TypoDOffset: 1
OS2TypoLinegap: 0
OS2WinAscent: 0
OS2WinAOffset: 1
OS2WinDescent: 0
OS2WinDOffset: 1
HheadAscent: 0
HheadAOffset: 1
HheadDescent: 0
HheadDOffset: 1
OS2Vendor: 'PfEd'
MarkAttachClasses: 1
DEI: 91125
Encoding: UnicodeBmp
UnicodeInterp: none
NameList: Adobe Glyph List
DisplaySize: -48
AntiAlias: 1
FitToEm: 1
WinInfo: 88 11 5
BeginPrivate: 9
BlueValues 23 [-16 0 387 396 677 680]
OtherBlues 11 [-278 -276]
BlueScale 8 0.039625
BlueShift 1 7
BlueFuzz 1 0
StdHW 4 [34]
StemSnapH 32 [19 23 27 34 38 46 52 78 86 108]
StdVW 4 [81]
StemSnapV 10 [78 81 92]
EndPrivate
BeginChars: 65536 63

StartChar: a
Encoding: 97 97 0
Width: 401
VWidth: 0
Flags: W
HStem: -13 55<102.5 191.917> -12 40<294.181 376.824> 211 21<209.371 246> 371 21<134.541 217.277>
VStem: 35 85<58.5451 139.803 290.788 358.768> 246 81<58.8789 211 228.644 348.153>
LayerCount: 3
Fore
SplineSet
38 323 m 0xbc
 38 371 118 392 187 392 c 0
 261 392 327 355 327 295 c 2
 327 66 l 2
 327 50 328 28 351 28 c 0
 359 28 366 31 373 41 c 0
 378 48 378 48 386 43 c 0
 391 40 394 39 394 36 c 0
 394 35 394 32 392 29 c 0
 380 5 357 -12 330 -12 c 0x7c
 260 -12 248 54 248 54 c 1
 248 54 228 34 203 16 c 0
 182 1 157 -13 130 -13 c 0
 75 -13 35 26 35 75 c 0
 35 170 150 216 246 232 c 1
 246 305 l 2
 246 352 214 371 173 371 c 0
 159 371 144 370 134 362 c 0
 120 351 115 336 115 314 c 0
 115 297 91 284 76 284 c 0
 53 284 38 300 38 323 c 0xbc
246 211 m 1
 195 200 120 177 120 115 c 0
 120 79 139 42 184 42 c 0xbc
 199 42 246 63 246 93 c 2
 246 211 l 1
EndSplineSet
Layer: 2
SplineSet
38 323 m 4xbc
 38 371 118 392 187 392 c 4
 261 392 327 355 327 295 c 6
 327 66 l 6
 327 50 327 30 351 30 c 4
 357 30 364 33 368 37 c 4
 373 42 375 47 380 47 c 4
 389 47 393 40 393 31 c 4
 393 5 359 -12 330 -12 c 4x7c
 260 -12 247 54 247 54 c 5
 247 54 228 34 203 16 c 4
 182 1 157 -13 130 -13 c 4
 75 -13 35 26 35 75 c 4
 35 133 86 183 146 207 c 4
 181 221 213 226 245 230 c 5
 245 305 l 6
 245 352 214 371 173 371 c 4
 159 371 144 370 134 362 c 4
 120 351 115 336 115 314 c 4
 115 297 91 284 76 284 c 4
 53 284 38 300 38 323 c 4xbc
245 211 m 5
 245 211 120 196 120 115 c 4
 120 79 139 42 184 42 c 4xbc
 199 42 245 63 245 93 c 6
 245 211 l 5
EndSplineSet
EndChar

StartChar: b
Encoding: 98 98 1
Width: 486
VWidth: 0
Flags: W
HStem: -12 31<200.996 302.409> -2 31<15 68.7003> 370 26<211.297 302.426> 630 32<5.02045 66.4192> 657 20G<132 149>
VStem: 72 78<30.5784 70> 366 92<104.391 291.247>
LayerCount: 3
Fore
SplineSet
147 320 m 1x2e
 166 358 205 396 276 396 c 0
 371 396 458 314 458 198 c 0
 458 93 379 -12 261 -12 c 0xae
 188 -12 152 45 142 70 c 1
 142 7 l 2
 142 -2 141 -6 132 -5 c 0
 110 -3 79 -2 55 -2 c 2
 26 -2 l 2
 15 -2 15 1 15 13 c 0
 15 25 15 29 26 29 c 0
 70 29 72 36 72 83 c 2
 72 487 l 2
 72 523 70 565 69 597 c 0
 69 612 69 631 48 631 c 2
 24 630 l 2
 12 630 5 626 5 644 c 0
 5 659 7 662 18 662 c 0x76
 73 664 118 673 146 677 c 0
 152 677 156 676 156 668 c 0
 156 652 147 453 147 320 c 1x2e
150 191 m 2
 150 105 159 19 250 19 c 0
 343 19 366 129 366 192 c 0
 366 282 337 370 257 370 c 0
 227 370 202 357 183 337 c 0
 154 307 150 259 150 202 c 2
 150 191 l 2
EndSplineSet
Layer: 2
SplineSet
146 318 m 1x2e
 165 356 202 396 276 396 c 0
 368 396 458 309 458 194 c 0
 458 92 378 -12 261 -12 c 0
 169 -12 145 61 145 61 c 1
 145 19 l 2xae
 145 0 144 -5 141 -5 c 0
 138 -5 99 0 74 0 c 2
 42 0 l 2
 30 0 14 0 14 14 c 0
 14 25 18 27 33 29 c 2
 53 31 l 2
 70 33 72 60 72 83 c 2
 72 499 l 2
 72 523 72 551 71 591 c 0
 71 604 69 618 51 622 c 2
 36 625 l 2
 31 626 17 628 17 639 c 0
 17 650 23 654 36 655 c 0x76
 67 658 134 674 140 674 c 0
 154 674 154 667 154 658 c 0
 154 561 146 318 146 318 c 1x2e
366 192 m 0
 366 282 337 370 257 370 c 0
 227 370 202 357 183 337 c 0
 154 307 150 259 150 202 c 2
 150 191 l 2
 150 133 151 78 180 45 c 0
 192 31 219 19 245 19 c 0
 343 19 366 128 366 192 c 0
EndSplineSet
EndChar

StartChar: c
Encoding: 99 99 2
Width: 419
VWidth: 0
Flags: WO
HStem: -16 46<182.026 307.887> 373 23<197.384 292.145>
VStem: 26 92<101.072 267.635> 311 72<270.888 357.538>
LayerCount: 3
Fore
SplineSet
118 191 m 0
 118 116 161 30 250 30 c 0
 314 30 343 71 354 91 c 0
 361 103 360 100 371 95 c 0
 381 90 383 91 378 80 c 0
 355 29 302 -16 217 -16 c 0
 104 -16 26 74 26 183 c 0
 26 294 131 396 239 396 c 0
 298 396 383 373 383 309 c 0
 383 282 367 267 342 267 c 0
 328 267 311 280 311 296 c 0
 311 317 313 316 313 331 c 0
 313 340 302 373 246 373 c 0
 152 373 118 277 118 191 c 0
EndSplineSet
Layer: 2
SplineSet
118 191 m 0
 118 116 161 30 250 30 c 0
 329 30 355 94 359 101 c 1
 382 90 l 1
 362 35 308 -16 217 -16 c 0
 104 -16 26 74 26 183 c 0
 26 294 131 396 239 396 c 0
 298 396 383 373 383 309 c 0
 383 282 367 267 342 267 c 0
 328 267 311 280 311 296 c 0
 311 317 313 316 313 331 c 0
 313 340 302 373 246 373 c 0
 152 373 118 277 118 191 c 0
239 396 m 0
 298 396 383 373 383 309 c 0
 383 282 367 267 342 267 c 0
 328 267 311 280 311 296 c 0
 311 317 313 316 313 331 c 0
 313 340 302 373 246 373 c 0
 152 373 118 277 118 191 c 0
 118 120 158 30 238 30 c 0
 288 30 319 44 340 73 c 0
 347 82 351 101 366 101 c 0
 375 101 379 94 379 86 c 0
 379 71 371 56 360 43 c 0
 331 7 273 -16 217 -16 c 0
 104 -16 22 74 22 183 c 0
 22 294 131 396 239 396 c 0
EndSplineSet
EndChar

StartChar: d
Encoding: 100 100 3
Width: 500
VWidth: 0
Flags: W
HStem: -17 40<175.747 281.879> -13 21G<355 361.5> 0 28<431.557 479.988> 365 26<188.462 284.166> 630 32<275.02 336.419> 657 20G<402 419>
VStem: 26 86<90.9155 283.025> 339 87<488.692 630.969> 342 75<58.9574 327.331 336 554.545>
LayerCount: 3
Fore
SplineSet
417 315 m 2x1680
 417 189 l 2
 417 140 419 104 422 69 c 0
 425 38 437 28 470 28 c 0
 476 28 480 28 480 15 c 0
 480 0 476 0 467 0 c 0x3680
 404 -3 364 -13 359 -13 c 0x5280
 351 -13 346 -12 346 1 c 2
 346 60 l 1
 336 40 282 -17 209 -17 c 0
 71 -17 26 87 26 190 c 0
 26 292 99 391 222 391 c 0
 301 391 342 336 342 336 c 1
 342 487 l 2x9280
 342 523 340 565 339 597 c 0
 339 612 339 631 318 631 c 2
 294 630 l 2
 282 630 275 626 275 644 c 0
 275 659 277 662 288 662 c 0x9b
 343 664 388 673 416 677 c 0
 422 677 426 676 426 668 c 0x17
 426 652 417 448 417 315 c 2x1680
112 185 m 0
 112 107 153 23 236 23 c 0
 280 23 318 44 331 78 c 0
 338 98 339 124 339 152 c 2
 339 262 l 2x93
 339 323 302 365 239 365 c 0
 151 365 112 273 112 185 c 0
EndSplineSet
Layer: 2
SplineSet
480 23 m 0x6e
 480 14 479 9 470 9 c 0x6e
 416 9 372 -4 359 -4 c 0
 351 -4 346 -1 346 12 c 2
 346 62 l 1
 346 62 284 -9 217 -9 c 0
 73 -9 26 90 26 195 c 0
 26 297 99 396 222 396 c 0
 301 396 342 341 342 341 c 1
 342 487 l 2
 342 523 340 565 339 597 c 0
 339 612 339 631 318 631 c 2
 294 630 l 2
 282 630 275 635 275 644 c 0
 275 651 277 662 288 662 c 0xb6
 340 664 401 678 413 678 c 0
 426 678 424 670 424 660 c 0
 424 654 418 568 418 520 c 0
 418 458 417 565 417 231 c 2
 417 194 l 2
 417 145 419 112 422 77 c 0
 424 55 432 38 454 37 c 0
 471 36 480 38 480 23 c 0x6e
112 190 m 0
 112 112 153 28 236 28 c 0xa6
 280 28 318 49 331 83 c 0
 340 108 342 140 342 176 c 2
 342 267 l 2
 342 328 302 370 239 370 c 0
 151 370 112 278 112 190 c 0
EndSplineSet
EndChar

StartChar: e
Encoding: 101 101 4
Width: 403
VWidth: 0
Flags: W
HStem: -16 52<177.153 300.843> 234 34<118.01 281.681> 241 24<118 233.053> 367 29<167.707 257.522>
VStem: 21 91<109.351 237.109> 286 80<247 325.484>
LayerCount: 3
Fore
SplineSet
214 -16 m 4xbc
 98 -16 21 66 21 178 c 0
 21 283 96 396 208 396 c 0
 235 396 260 394 282 383 c 0
 327 360 366 311 366 255 c 0
 366 239 348 234 331 234 c 0xdc
 317 234 113 241 113 241 c 1
 112 232 112 223 112 215 c 0
 112 100 168 36 244 36 c 0
 300 36 331 71 343 105 c 0
 348 118 348 119 362 115 c 0
 371 112 374 111 374 107 c 0
 374 105 373 102 372 97 c 0
 354 33 297 -16 214 -16 c 4xbc
212 367 m 0
 136 367 118 265 118 265 c 1xbc
 118 265 131 265 238 268 c 0
 264 269 286 270 286 308 c 0
 286 338 250 367 212 367 c 0
EndSplineSet
Layer: 2
SplineSet
246 36 m 0xbc
 311 36 336 82 348 119 c 1
 375 111 l 1xba
 370 73 326 -16 209 -16 c 0
 93 -16 21 67 21 178 c 0
 21 283 96 396 208 396 c 0
 235 396 260 394 282 383 c 0
 327 360 366 311 366 255 c 0
 366 239 348 234 331 234 c 0xdc
 317 234 113 241 113 241 c 1
 113 225 l 2
 113 99 171 36 246 36 c 0xbc
212 367 m 0
 136 367 118 265 118 265 c 1xbc
 118 265 131 265 238 268 c 0
 264 269 286 270 286 308 c 0xdc
 286 338 250 367 212 367 c 0
21 176 m 0
 21 281 96 396 208 396 c 0
 235 396 260 394 282 383 c 0
 327 360 366 311 366 255 c 0
 366 239 348 234 331 234 c 0
 317 234 112 241 112 241 c 1
 112 223 l 2
 112 96 172 34 248 34 c 0
 292 34 326 64 338 97 c 0
 342 106 348 116 358 116 c 0
 366 116 373 109 373 97 c 0
 373 63 323 -18 209 -18 c 0
 93 -18 21 65 21 176 c 0
212 367 m 0
 136 367 118 265 118 265 c 1
 118 265 131 265 238 268 c 0
 264 269 286 270 286 308 c 0
 286 338 250 367 212 367 c 0
EndSplineSet
EndChar

StartChar: f
Encoding: 102 102 5
Width: 262
VWidth: 0
Flags: W
HStem: -2 36<24.0008 74.125 158.751 221.999> 341 32<28.0008 76 157 229> 659 21<207.218 263.041>
VStem: 76 81<34 341 373 589.726> 262 88<576.528 658.809>
LayerCount: 3
Fore
SplineSet
39 34 m 2
 61 34 l 2
 76 34 76 64 76 87 c 2
 76 328 l 2
 76 341 75 341 64 341 c 2
 44 341 l 2
 28 341 28 342 28 358 c 0
 28 372 29 373 40 373 c 2
 66 373 l 2
 76 373 76 373 76 384 c 2
 76 470 l 2
 76 533 85 594 133 638 c 0
 164 666 193 680 252 680 c 0
 297 680 350 669 350 613 c 0
 350 583 322 570 307 570 c 0
 282 570 262 584 262 614 c 0
 262 626 264 636 264 643 c 0
 264 657 256 659 241 659 c 0
 166 659 157 546 157 504 c 2
 157 384 l 2
 157 373 157 373 168 373 c 2
 216 373 l 2
 228 373 229 371 229 364 c 2
 229 350 l 2
 229 343 228 341 216 341 c 2
 168 341 l 2
 157 341 157 340 157 328 c 2
 157 87 l 2
 157 58 157 34 174 34 c 2
 207 34 l 2
 221 34 222 26 222 17 c 0
 222 3 222 -2 207 -2 c 0
 185 -1 148 0 128 0 c 2
 112 0 l 2
 90 0 58 -1 39 -2 c 0
 24 -2 24 3 24 17 c 0
 24 26 25 34 39 34 c 2
EndSplineSet
Layer: 2
SplineSet
264 627 m 4
 264 641 256 643 241 643 c 4
 166 643 157 530 157 488 c 6
 157 384 l 6
 157 373 157 373 168 373 c 6
 229 373 l 5
 229 341 l 5
 168 341 l 6
 157 341 157 340 157 328 c 6
 157 85 l 6
 157 55.9827637429 157 32 174 32 c 6
 220 32 l 5
 220 -2 l 5
 220 -2 152 0 124 0 c 4
 95 0 25 -2 25 -2 c 5
 25 32 l 5
 61 32 l 6
 76 32 76 61.9782711336 76 85 c 6
 76 328 l 6
 76 341 75 341 64 341 c 6
 28 341 l 5
 28 373 l 5
 66 373 l 6
 76 373 76 373 76 384 c 6
 76 454 l 6
 76 517 85 578 133 622 c 4
 164 650 193 664 252 664 c 4
 297 664 350 653 350 597 c 4
 350 567 322 554 307 554 c 4
 282 554 262 568 262 598 c 4
 262 610 264 620 264 627 c 4
264 627 m 0
 264 641 256 643 241 643 c 0
 166 643 157 530 157 488 c 2
 157 384 l 2
 157 373 157 373 168 373 c 2
 215 374 l 2
 226 374 229 369 229 358 c 2
 229 354 l 2
 229 345 225 340 213 340 c 2
 168 341 l 2
 157 341 157 340 157 328 c 2
 157 166 l 2
 157 152 157 118 158 85 c 0
 159 56 156 32 173 32 c 2
 205 32 l 2
 217 32 222 30 222 16 c 0
 222 1 217 -2 208 -2 c 0
 182 -2 152 0 124 0 c 0
 95 0 55 -2 39 -2 c 0
 26 -2 24 6 24 16 c 0
 24 28 27 32 41 32 c 2
 61 32 l 2
 76 32 74 62 75 85 c 0
 76 108 76 138 76 166 c 2
 76 328 l 2
 76 341 75 341 62 341 c 2
 40 340 l 2
 29 340 28 344 28 352 c 2
 28 361 l 2
 28 368 29 374 40 374 c 2
 66 373 l 2
 76 373 76 373 76 384 c 2
 76 454 l 2
 76 517 85 578 133 622 c 0
 164 650 193 664 252 664 c 0
 297 664 350 653 350 597 c 0
 350 567 322 554 307 554 c 0
 282 554 262 568 262 598 c 0
 262 610 264 620 264 627 c 0
EndSplineSet
EndChar

StartChar: g
Encoding: 103 103 6
Width: 422
VWidth: 0
Flags: W
HStem: -276 34<131.226 290.54> -47 78<157 312.636> 111 19<142.433 206.195> 372 19<149.076 207.644 301.801 368>
VStem: 19 65<-204.706 -85.2302> 22 82<175.425 323.274> 71 44<19.5 90.2421> 246 77<171.606 315.895> 356 56<-188.52 -81.415>
LayerCount: 3
Fore
SplineSet
176 391 m 0xf580
 227 391 270 357 270 357 c 1
 270 357 308 397 350 397 c 0
 386 397 412 382 412 347 c 0
 412 331 405 313 385 313 c 0
 343 313 352 370 322 370 c 0
 301 370 280 346 280 346 c 1
 280 346 323 302 323 243 c 0
 323 174 271 111 172 111 c 0
 156 111 115 107 115 71 c 0xf380
 115 36 152 31 184 31 c 2
 269 31 l 2
 362 31 412 -11 412 -103 c 0
 412 -240 285 -276 210 -276 c 0
 113 -276 19 -230 19 -139 c 0xf980
 19 -66 76 -49 110 -45 c 0
 122 -44 138 -42 138 -42 c 1
 138 -42 120 -35 110 -30 c 0
 88 -19 71 2 71 37 c 0xf380
 71 91 126 116 126 116 c 1
 126 116 22 137 22 253 c 0
 22 333 96 391 176 391 c 0xf580
84 -139 m 0xf980
 84 -200 120 -242 214 -242 c 0
 300 -242 356 -194 356 -122 c 0
 356 -48.7533598196 231.338078808 -54.8250609271 157 -47 c 1
 158 -50 158 -52 158 -54 c 0
 156 -68 149 -65 133 -69 c 0
 99 -78 84 -112 84 -139 c 0xf980
178 372 m 0
 126 372 104 303 104 245 c 0xf580
 104 194 119 130 172 130 c 0
 230 130 246 186 246 237 c 0
 246 293 235 372 178 372 c 0
EndSplineSet
Layer: 2
SplineSet
176 388 m 4xcd60
 227 388 270 354 270 354 c 5
 270 354 308 394 350 394 c 4
 386 394 412 379 412 344 c 4
 412 328 405 310 385 310 c 4
 343 310 352 367 322 367 c 4
 301 367 280 343 280 343 c 5
 280 343 323 299 323 240 c 4
 323 171 271 108 172 108 c 4
 156 108 115 104 115 68 c 4xcce0
 115 33 152 28 184 28 c 6
 269 28 l 6
 362 28 412 -14 412 -106 c 4
 412 -243 285 -276 210 -276 c 4
 113 -276 19 -230 19 -139 c 4xae60
 19 -66 76 -49 110 -45 c 4
 122 -44 132 -43 132 -42 c 4
 132 -41 120 -38 110 -33 c 4
 88 -22 71 -1 71 34 c 4xcce0
 71 88 126 113 126 113 c 5
 126 113 22 134 22 250 c 4
 22 330 96 388 176 388 c 4xcd60
84 -139 m 4xce60
 84 -200 120 -242 214 -242 c 4
 300 -242 356 -197 356 -125 c 4
 356 -74 296 -58 238 -58 c 4xae60
 206 -58 157 -50 157 -50 c 5x9e60
 157 -50 162 -67 150 -67 c 4
 103 -67 84 -108 84 -139 c 4xce60
178 369 m 4
 126 369 104 300 104 242 c 4x8d60
 104 191 119 127 172 127 c 4
 230 127 246 183 246 234 c 4
 246 290 235 369 178 369 c 4
EndSplineSet
EndChar

StartChar: h
Encoding: 104 104 7
Width: 528
VWidth: 0
Flags: W
HStem: -2 34<29.0205 85.5807 172.828 226.968 295.043 351.104 436.688 496.965> 360 28<236.939 325.559> 630 25<36.0268 94.886>
VStem: 88 83<32 318.234 322 334.515> 98 85<410.426 629.99> 354 81<32 339.435>
LayerCount: 3
Fore
SplineSet
278 360 m 0xf4
 210 360 171 298 171 270 c 2
 171 69 l 2
 171 48 175 32 189 32 c 2
 204 32 l 2
 216 32 227 30 227 16 c 0
 227 1 217 -2 208 -2 c 0
 182 -2 160 0 132 0 c 0
 103 0 61 -2 45 -2 c 0
 32 -2 29 6 29 16 c 0
 29 28 35 32 49 32 c 6
 73 32 l 2
 88 32 87 62 88 85 c 0xf4
 92 240 98 500 98 587 c 2
 98 602 l 2
 98 616 97 630 84 630 c 0
 78 630 68 628 52 626 c 0
 40 625 36 632 36 641 c 0
 36 648 37 654 48 655 c 0
 96 660 157 673 168 673 c 0
 181 673 183 666 183 656 c 2xec
 183 656 175 580 171 322 c 1
 171 322 211 388 308 388 c 0
 384 388 436 351 436 289 c 2
 435 74 l 2
 435 46 438 32 452 32 c 2
 473 32 l 2
 485 32 497 30 497 16 c 0
 497 1 490 -2 481 -2 c 0
 455 -2 423 0 395 0 c 0
 366 0 334 -2 318 -2 c 0
 301 -2 295 3 295 16 c 0
 295 31 310 32 322 32 c 2
 339 32 l 2
 354 32 352 62 353 85 c 0
 354 108 354 138 354 166 c 2
 354 246 l 2
 354 312 346 360 278 360 c 0xf4
EndSplineSet
EndChar

StartChar: i
Encoding: 105 105 8
Width: 272
VWidth: 0
Flags: W
HStem: -2 36<42.0008 103.125 187.751 246.999> 349 32<43.0118 100.39> 372 20G<172.5 184> 566 108<100.676 187.324>
VStem: 90 108<576.676 663.324> 105 81<34 348.968>
LayerCount: 3
Fore
SplineSet
186 87 m 2xb4
 186 58 186 34 203 34 c 2
 232 34 l 2
 246 34 247 26 247 17 c 0
 247 3 247 -2 232 -2 c 0
 210 -2 176 0 156 0 c 2
 140 0 l 2
 118 0 79 -1 57 -2 c 0
 42 -2 42 3 42 17 c 0
 42 26 43 34 57 34 c 2
 90 34 l 2xb8
 105 34 105 64 105 87 c 2
 105 248 l 2
 105 276 105 302 103 326 c 0
 102 338 94 349 82 349 c 2
 59 349 l 2
 47 349 43 355 43 364 c 0
 43 371 44 381 55 381 c 0xd4
 127 381 167 392 178 392 c 0
 190 392 188 383 188 373 c 0
 188 358 186 324 186 248 c 2
 186 87 l 2xb4
90 620 m 0
 90 650 114 674 144 674 c 0
 174 674 198 650 198 620 c 0
 198 590 174 566 144 566 c 0
 114 566 90 590 90 620 c 0
EndSplineSet
Layer: 2
SplineSet
90 620 m 0
 90 650 114 674 144 674 c 0
 174 674 198 650 198 620 c 0
 198 590 174 566 144 566 c 0
 114 566 90 590 90 620 c 0
103 328 m 4
 103 340 102 352 91 352 c 4
 85 352 77 351 61 351 c 0
 49 351 45 357 45 366 c 0
 45 373 46 381 57 381 c 0
 115 381 165 388 176 388 c 0
 188 388 190 378 190 368 c 0
 190 361 186 187 186 85 c 0
 186 61 187 32 205 32 c 2
 226 32 l 2
 238 32 249 30 249 16 c 0
 249 1 239 -2 230 -2 c 0
 204 -2 175 0 147 0 c 0
 118 0 73 -2 57 -2 c 0
 44 -2 41 6 41 16 c 0
 41 28 47 32 61 32 c 2
 87 32 l 6
 102 32 101 62 102 85 c 4
 103 106 104 132 104 159 c 6
 104 250 l 6
 104 278 104 304 103 328 c 4
EndSplineSet
EndChar

StartChar: j
Encoding: 106 106 9
Width: 272
VWidth: 0
Flags: W
HStem: -248 27<4.14029 67.3437> 343 26<48.014 104.751> 370 20G<175.5 187.5> 566 108<100.676 187.324>
VStem: -89 87<-213.664 -147.02> 90 108<576.676 663.324> 109 81<-163.681 342.99>
LayerCount: 3
Fore
SplineSet
188 -89 m 0xfa
 185 -190 108 -248 9 -248 c 0
 -56 -248 -89 -226 -89 -187 c 0
 -89 -165 -68 -137 -40 -137 c 0
 -16 -137 -4 -160 -2 -179 c 0
 -1 -189 -2 -207 5 -214 c 0
 11 -220 16 -221 29 -221 c 0
 109 -221 109 -104 109 -29 c 0
 109 90 107 203 107 313 c 0
 107 329 104 343 91 343 c 0
 85 343 76 341 62 339 c 0
 50 337 48 346 48 355 c 0
 48 362 49 368 60 369 c 0
 108 374 170 390 181 390 c 0
 194 390 192 381 192 371 c 2
 192 371 189 322 189 180 c 0
 189 139 190 91 190 34 c 0
 190 -12 189 -52 188 -89 c 0xfa
90 620 m 0xfc
 90 650 114 674 144 674 c 0
 174 674 198 650 198 620 c 0
 198 590 174 566 144 566 c 0
 114 566 90 590 90 620 c 0xfc
EndSplineSet
EndChar

StartChar: k
Encoding: 107 107 10
Width: 476
VWidth: 0
Flags: W
HStem: -2 32<27.0236 81.2098 168.744 219.935 248.078 279.999 423.143 468.929> 353 21<244.731 270.357 364.643 405.505> 629 25<23.0268 79.7509>
VStem: 84 82<30 170.994 195 628.979>
LayerCount: 3
Fore
SplineSet
406 359 m 0
 406 350 398 347 389 347 c 0
 363 346 349 336 326 319 c 0
 293 294 260 259 240 238 c 0
 231 229 227 224 227 220 c 0
 227 216 232 212 240 203 c 0
 276 167 362 76 423 30 c 0
 426 28 432 28 435 28 c 0
 453 28 469 26 469 13 c 0
 469 -2 458 -2 449 -2 c 0
 423 -2 381 0 353 0 c 0
 324 0 280 -2 264 -2 c 0
 251 -2 248 6 248 16 c 0
 248 29 260 29 273 30 c 0
 279 30 280 33 280 37 c 0
 280 46 268 61 264 66 c 0
 243 94 217 121 184 163 c 0
 182 166 179 171 176 171 c 0
 169 171 166 163 166 146 c 2
 166 69 l 2
 166 48 171 30 185 30 c 2
 198 30 l 2
 210 30 220 30 220 16 c 0
 220 1 213 -2 204 -2 c 0
 178 -2 156 0 128 0 c 0
 99 0 57 -2 41 -2 c 0
 28 -2 27 6 27 16 c 0
 27 28 33 30 47 30 c 2
 69 30 l 2
 84 30 83 62 84 85 c 0
 86 147 86 225 86 302 c 0
 86 417 86 528 85 582 c 0
 85 600 85 629 68 629 c 0
 62 629 55 628 39 626 c 0
 27 625 23 631 23 640 c 0
 23 647 24 653 35 654 c 0
 83 659 145 672 156 672 c 0
 169 672 171 665 171 655 c 2
 170 594 l 2
 169 516 164 366 164 195 c 1
 193 222 280 304 280 322 c 0
 280 334 275 346 247 353 c 0
 238 355 239 374 248 374 c 2
 394 374 l 2
 402 374 406 367 406 359 c 0
EndSplineSet
EndChar

StartChar: l
Encoding: 108 108 11
Width: 270
VWidth: 0
Flags: W
HStem: -2 36<17.0008 93.125 177.751 248.999> 630 32<29.0204 91.115> 657 20G<159 176>
VStem: 94 89<383.24 631> 95 81<34 630.945>
LayerCount: 3
Fore
SplineSet
176 377 m 2xa8
 176 87 l 2
 176 58 176 34 193 34 c 2
 234 34 l 2
 248 34 249 26 249 17 c 0
 249 3 249 -2 234 -2 c 0
 212 -1 164 0 144 0 c 2
 128 0 l 2
 106 0 51 -1 32 -2 c 0
 17 -2 17 3 17 17 c 0
 17 26 18 34 32 34 c 2
 80 34 l 2
 95 34 95 64 95 87 c 2
 95 378 l 2xa8
 95 440 95 480 94 597 c 0
 94 612 93 631 72 631 c 2
 48 630 l 2
 36 630 29 626 29 644 c 0
 29 659 31 662 42 662 c 0xd0
 97 664 145 673 173 677 c 0
 179 677 183 676 183 668 c 0xb0
 183 651 176 510 176 377 c 2xa8
EndSplineSet
Layer: 2
SplineSet
175 76 m 4xb0
 175 56 177 31 190 31 c 6
 230 32 l 6
 242 32 252 32 252 18 c 4
 252 3 243 -2 234 -2 c 4
 208 -2 160 0 132 0 c 4
 103 0 45 -2 29 -2 c 4
 16 -2 15 6 15 16 c 4
 15 28 21 31 35 31 c 6
 75 30 l 6
 90 30 90 62 90 85 c 4xb0
 93 229 97 464 100 588 c 4
 100 604 95 630 82 630 c 4
 76 630 68 628 52 627 c 4
 40 626 34 634 34 643 c 4
 34 650 37 657 48 658 c 4xc8
 110 663 159 673 170 673 c 4
 183 673 184 672 184 659 c 4xa8
 184 611 176 588 176 277 c 4
 176 206 176 135 175 76 c 4xb0
EndSplineSet
EndChar

StartChar: m
Encoding: 109 109 12
Width: 740
VWidth: 0
Flags: W
HStem: -2 36<28.0756 86.409 174.056 226.993 277.008 327.386 416.406 474.991 515.011 572.058 659.739 718.991> 343 31<30.0147 82.7344> 361 31<236.588 310.004 470.727 549.883>
VStem: 88 83<34.0171 302.148 303 341.59> 331 84<34.1555 323.719> 575 84<33.0282 342.795>
LayerCount: 3
Fore
SplineSet
275 361 m 0xbc
 208 361 171 287 171 203 c 0
 171 158 172 114 173 69 c 0
 173 39 178 32 206 32 c 0
 218 32 227 30 227 16 c 0
 227 1 217 -2 208 -2 c 0
 182 -2 160 0 132 0 c 0
 103 0 61 -2 45 -2 c 0
 32 -2 28 8 28 18 c 0
 28 30 34 34 48 34 c 2
 74 34 l 2
 88 34 88 62 88 85 c 2
 88 173 l 2
 88 238 88 292 87 311 c 0
 86 326 86 343 52 343 c 2
 42 343 l 2
 35 343 30 349 30 358 c 0
 30 365 35 373 46 374 c 0xdc
 96 379 145 392 156 392 c 0
 169 392 169 385 169 375 c 2
 169 303 l 1
 169 303 202 392 299 392 c 0
 343 392 394 368 411 321 c 1
 425 350 467 392 541 392 c 0
 621 392 660 349 660 269 c 2
 659 64 l 2
 659 43 664 33 676 33 c 2
 695 33 l 2
 707 33 719 30 719 16 c 0
 719 1 712 -2 703 -2 c 0
 677 -2 643 0 615 0 c 0
 586 0 554 -2 538 -2 c 0
 521 -2 515 3 515 16 c 0
 515 31 530 32 542 32 c 2
 559 32 l 2
 574 32 573 62 574 85 c 0
 575 108 575 138 575 166 c 2
 575 246 l 2
 575 312 571 360 503 360 c 0
 473 360 434 333 424 301 c 0
 419 283 416 252 415 191 c 2
 414 74 l 2
 414 31 432 34 451 32 c 0
 463 31 475 30 475 16 c 0
 475 1 466 -2 457 -2 c 0
 431 -2 401 0 373 0 c 0
 344 0 314 -2 298 -2 c 0
 281 -2 277 3 277 16 c 0
 277 31 288 34 300 34 c 2
 315 34 l 2
 330 34 328 62 329 85 c 0
 331 119 331 157 331 195 c 2
 331 248 l 2
 331 304 326 361 275 361 c 0xbc
EndSplineSet
EndChar

StartChar: n
Encoding: 110 110 13
Width: 506
VWidth: 0
Flags: W
HStem: -2 36<28.0756 84.9324 168.473 223.993 285.008 336.386 425.282 483.794> 346 29<35.0147 82.1035> 363 28<241.158 318.158>
VStem: 87 79<34.0786 344.631> 340 84<34.0728 346.76>
LayerCount: 3
Fore
SplineSet
424 74 m 2xb8
 424 33 431 33 455 33 c 2
 468 33 l 2
 478 33 484 30 484 20 c 0
 484 2 476 -2 466 -2 c 0
 440 -2 410 0 382 0 c 0
 353 0 323 -2 307 -2 c 0
 290 -2 285 3 285 16 c 0
 285 31 296 34 308 34 c 2
 324 34 l 2
 339 34 337 62 338 85 c 0
 340 119 340 157 340 195 c 2
 340 248 l 2
 340 304 336 363 285 363 c 0xb8
 231 363 166 302 166 218 c 0
 166 173 166 114 167 69 c 0
 167 39 175 31 203 31 c 0
 215 31 224 30 224 16 c 0
 224 1 214 -2 205 -2 c 0
 179 -2 160 0 132 0 c 0
 103 0 61 -2 45 -2 c 0
 32 -2 28 8 28 18 c 0
 28 30 34 34 48 34 c 2
 72 34 l 2
 86 34 87 62 87 85 c 2
 87 173 l 2
 87 238 87 292 86 311 c 0
 85 326 86 346 52 346 c 2
 47 346 l 2
 40 346 35 352 35 361 c 0
 35 368 40 375 51 375 c 0xd8
 100 376 144 386 151 386 c 0
 164 386 161 379 161 369 c 2
 161 293 l 1
 161 293 200 391 304 391 c 0
 332 391 424 390 424 265 c 2
 424 74 l 2xb8
EndSplineSet
EndChar

StartChar: o
Encoding: 111 111 14
Width: 484
VWidth: 0
Flags: W
HStem: -16 27<191.26 289.963> 373 23<193.656 286.087>
VStem: 34 92<99.3062 275.639> 352 87<101.642 289.612>
LayerCount: 3
Fore
SplineSet
439 202 m 0
 439 89 363 -16 233 -16 c 4
 119 -16 34 80 34 194 c 0
 34 315 159 396 248 396 c 0
 351 396 439 310 439 202 c 0
243 373 m 0
 159 373 126 305 126 188 c 0
 126 89 158 11 241 11 c 0
 337 11 352 114 352 198 c 0
 352 278 325 373 243 373 c 0
EndSplineSet
EndChar

StartChar: p
Encoding: 112 112 15
Width: 524
VWidth: 0
Flags: W
HStem: -278 34<16.0141 88.1042 179.271 246.985> -13 25<230.012 328.606> 359 27<34.0037 89.2839 223.072 340.606>
VStem: 93 78<-243.806 48 52.94 320.731 323 358.926> 401 93<95.8112 281.911>
LayerCount: 3
Fore
SplineSet
69 359 m 2
 51 359 l 2
 35 359 34 364 34 373 c 0
 34 381 39 386 54 386 c 2
 62 386 l 2
 94 386 152 392 156 392 c 0
 168 392 170 386 170 370 c 2
 170 323 l 1
 201 364 234 391 300 391 c 0
 401 391 494 311 494 188 c 0
 494 85 417 -13 294 -13 c 0
 202 -13 171 48 171 48 c 1
 174 -48 173 -105 176 -191 c 0
 177 -220 178 -244 195 -244 c 2
 230 -244 l 2
 242 -244 247 -246 247 -260 c 0
 247 -275 242 -278 233 -278 c 0
 207 -278 169 -276 141 -276 c 0
 112 -276 47 -278 31 -278 c 0
 18 -278 16 -270 16 -260 c 0
 16 -248 19 -244 33 -244 c 2
 76 -244 l 2
 91 -244 89 -214 90 -191 c 0
 91 -168 93 32 93 60 c 2
 92 327 l 2
 92 353 82 359 69 359 c 2
401 188 m 0
 401 285 360 365 283 365 c 0
 240 365 218 347 198 327 c 0
 172 301 171 265 171 236 c 2
 171 127 l 2
 171 31 241 12 277 12 c 0
 371 12 401 97 401 188 c 0
EndSplineSet
EndChar

StartChar: q
Encoding: 113 113 16
Width: 500
VWidth: 0
Flags: W
HStem: -273 32<271.002 342.948 431.507 476.996> -13 30<192.889 293.381> 371 23<197.556 298.179>
VStem: 36 91<85.2984 276.519> 346 83<-240.771 48 50.0378 339.375>
LayerCount: 3
Fore
SplineSet
429 -188 m 0
 429 -229 430 -242 462 -243 c 0
 474 -243 477 -244 477 -257 c 0
 477 -272 472 -273 463 -273 c 0
 452 -273 412 -271 388 -271 c 0
 359 -271 302 -273 286 -273 c 0
 273 -273 271 -267 271 -257 c 0
 271 -245 274 -241 288 -241 c 2
 331 -241 l 2
 346 -241 344 -211 345 -188 c 0
 346 -170 346 -119 346 -69 c 2
 346 48 l 1
 323 9 276 -13 222 -13 c 0
 100 -13 36 79 36 179 c 0
 36 289 112 394 238 394 c 0
 319 394 351 344 351 344 c 9
 378 362 404 391 421 391 c 0
 434 391 434 371 434 357 c 0
 434 347 426 247 426 226 c 0
 426 199 427 172 427 145 c 0
 427 31 428 -81 429 -188 c 0
127 186 m 0
 127 115 148 17 251 17 c 0
 274 17 291 23 305 32 c 0
 342 55 349 113 349 169 c 2
 349 262 l 2
 349 323 318 371 250 371 c 0
 162 371 127 300 127 186 c 0
EndSplineSet
EndChar

StartChar: r
Encoding: 114 114 17
Width: 358
VWidth: 0
Flags: W
HStem: -2 36<33.0008 94.125 178.751 251.999> 349 32<34.0118 91.5193> 351 45<228.172 292.584>
VStem: 96 81<34 306.887 308 348.968>
LayerCount: 3
Fore
SplineSet
96 87 m 2xb0
 96 248 l 2
 96 276 96 302 94 326 c 0
 93 338 85 349 73 349 c 2
 50 349 l 2
 38 349 34 355 34 364 c 0
 34 371 35 381 46 381 c 0xd0
 120 381 153 394 164 394 c 0
 176 394 176 383 176 373 c 2
 176 308 l 1
 194 345 233 396 285 396 c 0
 315 396 345 378 345 346 c 0
 345 323 328 302 305 302 c 0
 272 302 270 351 247 351 c 0
 228 351 202 322 189 286 c 0
 182 266 177 246 177 224 c 2
 177 87 l 2
 177 58 177 34 194 34 c 2
 237 34 l 2
 251 34 252 26 252 17 c 0
 252 3 252 -2 237 -2 c 0
 215 -2 167 0 147 0 c 2
 131 0 l 2
 109 0 70 -1 48 -2 c 0
 33 -2 33 3 33 17 c 0
 33 26 34 34 48 34 c 2
 81 34 l 2
 96 34 96 64 96 87 c 2xb0
EndSplineSet
Layer: 2
SplineSet
94 327 m 4xb0
 93 339 85 350 73 350 c 6
 50 350 l 6
 38 350 34 356 34 365 c 4
 34 372 35 382 46 382 c 4xd0
 101 384 153 394 164 394 c 4
 176 394 176 384 176 374 c 6
 176 309 l 5
 194 346 233 397 285 397 c 4
 315 397 345 379 345 347 c 4
 345 324 328 303 305 303 c 4
 272 303 270 352 247 352 c 4
 228 352 202 323 189 287 c 4
 182 267 180 247 180 225 c 6
 180 84 l 6
 180 60 181 36 199 36 c 6
 232 36 l 6
 244 36 254 30 254 16 c 4
 254 1 244 -2 235 -2 c 4
 209 -2 168 0 140 0 c 4
 111 0 67 -2 51 -2 c 4
 38 -2 33 6 33 16 c 4
 33 28 39 35 53 35 c 6
 80 35 l 6
 95 35 92 61 93 84 c 4
 94 105 96 131 96 158 c 6
 96 249 l 6
 96 277 96 303 94 327 c 4xb0
EndSplineSet
EndChar

StartChar: s
Encoding: 115 115 18
Width: 340
VWidth: 0
Flags: W
HStem: -15 30<121.813 220.492> -2 21G<48 54> 369 24<134.537 214.143>
VStem: 44 66<261.765 346.857> 48 24<81.0745 132.926> 243 69<36.3626 132.095> 262 17<266.932 302.532>
LayerCount: 3
Fore
SplineSet
166 393 m 0xb4
 201 393 228 376 244 376 c 0
 250 376 255 378 260 380 c 2
 270 385 l 2
 273 387 276 388 278 388 c 0
 285 388 286 378 286 369 c 0
 286 350 279 313 279 277 c 0
 279 264 265 263 262 275 c 0xb2
 248 332 223 369 170 369 c 0
 130 369 110 338 110 305 c 0
 110 256 151 253 195 240 c 0
 233 229 262 225 287 192 c 0
 305 168 312 123 312 108 c 0
 312 28 250 -15 172 -15 c 0xb4
 133 -15 99 12 92 12 c 0
 87 12 84 12 74 7 c 2
 65 2 l 2
 60 -1 56 -2 52 -2 c 0x74
 44 -2 38 4 38 15 c 0
 38 36 47 80 48 117 c 0
 48 128 53 133 59 133 c 0
 64 133 70 129 72 120 c 0xac
 90 24 142 15 180 15 c 0
 216 15 243 42 243 86 c 0
 243 123 207 150 172 162 c 0
 115 182 91 180 59 228 c 0
 49 243 44 259 44 284 c 0
 44 348 99 393 166 393 c 0xb4
EndSplineSet
EndChar

StartChar: t
Encoding: 116 116 19
Width: 278
VWidth: 0
Flags: W
HStem: -16 44<154.463 229.215> 339 37<145.999 240>
VStem: 62 81<36.2575 337.965> 233 27<37.7202 67.7509>
LayerCount: 3
Fore
SplineSet
163 -16 m 0
 75 -16 59 40 59 59 c 0
 59 128 62 220 62 293 c 2
 62 321 l 2
 62 332 58 338 48 338 c 2
 42 338 l 2
 32 338 27 342 27 348 c 0
 27 353 31 359 36 364 c 0
 93 418 98 444 112 475 c 0
 117 486 121 495 135 495 c 0
 143 495 151 490 151 478 c 0
 151 452 147 415 146 393 c 0
 146 376 144 376 161 376 c 2
 226 376 l 2
 237 376 240 372 240 364 c 2
 240 354 l 2
 240 340 236 339 225 339 c 2
 152 339 l 2
 144 339 143 337 143 322 c 2
 143 129 l 2
 143 73 147 28 191 28 c 0
 220 28 229 45 233 59 c 0
 236 71 238 72 247 70 c 0
 256 68 260 66 260 62 c 0
 260 16 214 -16 163 -16 c 0
EndSplineSet
Layer: 2
SplineSet
53 54 m 0xe0
 53 129 63 250 63 321 c 0
 63 331 59 338 49 338 c 2
 43 338 l 2
 33 338 28 342 28 348 c 0
 28 353 32 359 37 364 c 0
 94 418 98 444 112 475 c 0
 117 486 121 495 135 495 c 0
 143 495 151 490 151 478 c 0
 151 452 147 415 146 393 c 0
 146 376 144 376 161 376 c 2
 216 377 l 2
 233 377 240 372 240 364 c 2
 240 354 l 2
 240 337 231 338 220 338 c 2
 152 339 l 2
 144 339 144 337 143 322 c 0xd0
 142 294 142 226 142 170 c 2
 142 124 l 2
 142 68 147 23 191 23 c 0
 237 23 226 66 245 66 c 0
 252 66 260 61 260 51 c 0
 260 44 254 23 242 11 c 0
 224 -7 193 -21 163 -21 c 0
 75 -21 53 35 53 54 c 0xe0
EndSplineSet
EndChar

StartChar: u
Encoding: 117 117 20
Width: 518
VWidth: 0
Flags: W
HStem: -16 38<191.878 281.001> -4 21G<365 376> 1 31<438.58 494.992> 349 29<29.0032 83.1922 291.149 350.459>
VStem: 84 89<164.776 348.993> 86 80<45.635 348.993> 357 75<35.3594 81 89.6277 351.965>
LayerCount: 3
Fore
SplineSet
86 250 m 0x96
 86 278 85 304 84 328 c 0
 84 340 77 349 70 349 c 0
 65 349 49 348 45 348 c 0
 33 348 29 354 29 363 c 0
 29 370 30 378 41 378 c 0
 62 377 82 377 103 377 c 0
 120 377 139 377 157 378 c 0
 169 378 173 374 173 364 c 0x9a
 173 357 166 262 166 160 c 0
 166 65 182 22 243 22 c 0x96
 306 22 350 89 351 156 c 0
 352 188 352 222 352 255 c 0
 352 280 352 305 351 328 c 0
 351 340 346 352 334 352 c 0
 328 352 323 351 307 351 c 0
 295 351 291 357 291 366 c 0
 291 373 292 378 303 378 c 0
 361 378 409 383 420 383 c 0
 432 383 433 373 433 363 c 0
 433 356 432 187 432 85 c 0
 432 44 442 34 472 32 c 0
 484 31 495 30 495 16 c 0
 495 1 485 1 476 1 c 0x36
 400 0 380 -4 372 -4 c 0x56
 358 -4 357 0 357 10 c 2
 357 81 l 1
 346 56 296 -16 212 -16 c 0
 178 -16 149 -7 128 9 c 0
 99 30 83 56 83 106 c 0
 83 152 86 203 86 250 c 0x96
EndSplineSet
EndChar

StartChar: v
Encoding: 118 118 21
Width: 452
VWidth: 0
Flags: W
HStem: -14 21G<204.5 212> 358 26<15.0354 39 286.074 326.144 393.449 431.996>
VStem: 334 98<318.5 374>
DStem2: 259 143 289 147 0.408366 0.912818<-23.0956 194.548>
LayerCount: 3
Fore
SplineSet
94 382 m 0
 117 382 141 383 178 384 c 0
 191 384 192 375 192 369 c 0
 192 354 159 362 159 348 c 0
 159 332 212 203 234 148 c 0
 241 131 244 123 247 123 c 0
 250 123 252 129 259 143 c 0
 275 175 303 237 326 293 c 0
 331 304 334 314 334 323 c 0
 334 341 323 354 300 359 c 0
 292 361 286 366 286 372 c 0
 286 377 290 383 299 383 c 0
 321 383 339 382 359 382 c 0
 379 382 394 383 411 383 c 0
 426 383 432 377 432 371 c 0
 432 367 431 362 424 360 c 0
 390 349 377 333 363 304 c 2
 289 147 l 2
 277 122 245 46 227 0 c 0
 224 -8 216 -14 208 -14 c 0
 201 -14 194 -9 191 0 c 2
 147 125 l 2
 122 194 97 257 66 328 c 0
 59 342 50 351 39 354 c 2
 25 358 l 2
 18 360 15 365 15 372 c 0
 15 378 17 384 23 384 c 0
 56 384 77 382 94 382 c 0
EndSplineSet
EndChar

StartChar: w
Encoding: 119 119 22
Width: 694
VWidth: 0
Flags: W
HStem: -15 20G<217.5 224.5 453 460.5> 354 28<28.3484 66.2529 279.187 301 531.074 570.889 625.082 666.996>
VStem: 327 82<271.894 354.5> 574 93<318.5 371>
DStem2: 261 141 286 136 0.359227 0.93325<-22.9214 149.83> 500 138 519 114 0.380439 0.924806<-23.0041 198.85>
LayerCount: 3
Fore
SplineSet
100 380 m 0
 123 380 151 381 188 382 c 0
 201 382 202 375 202 369 c 0
 202 350 164 362 164 337 c 0
 164 321 214 201 236 146 c 0
 243 129 246 121 249 121 c 0
 252 121 254 127 261 141 c 0
 269 158 298 228 315 272 c 0
 321 289 327 302 327 314 c 0
 327 318 326 323 324 327 c 2
 315 346 l 2
 313 351 308 354 301 356 c 2
 291 358 l 2
 284 359 279 363 279 370 c 0
 279 379 286 381 303 381 c 0
 319 381 346 380 352 380 c 0
 373 380 395 381 428 382 c 0
 441 382 442 375 442 369 c 0
 442 354 409 362 409 348 c 0
 409 332 453 198 475 143 c 0
 482 126 485 118 488 118 c 0
 491 118 493 124 500 138 c 0
 516 170 543 237 566 293 c 0
 571 304 574 314 574 323 c 0
 574 341 568 351 545 356 c 0
 537 358 531 363 531 369 c 0
 531 374 535 381 544 381 c 0
 566 381 577 380 597 380 c 0
 617 380 629 381 646 381 c 0
 661 381 667 374 667 368 c 0
 667 364 666 359 659 357 c 0
 625 346 613 334 600 303 c 2
 519 114 l 1
 477 4 l 2
 472 -10 464 -16 457 -16 c 0
 449 -16 440 -8 436 6 c 2
 397 125 l 2
 384 164 369 211 353 252 c 0
 348 264 346 270 344 270 c 0
 342 270 339 264 334 252 c 2
 286 136 l 2
 276 111 254 46 237 0 c 0
 233 -10 228 -15 221 -15 c 0
 214 -15 206 -9 202 0 c 0
 154 113 119 210 72 328 c 0
 66 343 60 351 50 354 c 0
 38 358 28 358 28 372 c 0
 28 378 38 382 44 382 c 0
 77 382 83 380 100 380 c 0
EndSplineSet
EndChar

StartChar: x
Encoding: 120 120 23
Width: 484
VWidth: 0
Flags: W
HStem: -2 33<10.3587 74.6376 263.078 294.999 418.106 462.992> 354 27<10.0088 62.0553 170.003 199.996 283.297 320.837 377.441 434.953>
DStem2: 183 318 72 329 0.642871 -0.765974<-26.486 104.597 137.096 286.908> 107 79 136 66 0.656399 0.754414<-11.554 9.2282 210.995 334.436>
LayerCount: 3
Fore
SplineSet
195 177 m 1
 195 177 137 254 72 329 c 0
 62 341 53 354 33 354 c 2
 20 354 l 2
 13 354 10 361 10 368 c 0
 10 374 12 381 18 381 c 0
 51 381 77 380 94 380 c 0
 117 380 149 380 186 381 c 0
 199 381 200 373 200 367 c 0
 200 358 194 358 189 357 c 0
 174 354 170 349 170 342 c 0
 170 335 176 327 183 318 c 2
 248 236 l 1
 248 236 321 320 321 337 c 0
 321 355 312 357 297 357 c 0
 288 357 283 364 283 370 c 0
 283 375 287 381 296 381 c 0
 318 381 339 380 359 380 c 0
 379 380 397 381 414 381 c 0
 429 381 435 375 435 369 c 0
 435 360 431 354 424 353 c 0
 385 348 384 350 357 320 c 2
 263 218 l 1
 263 218 373 85 418 38 c 0
 420 35 439 31 442 31 c 0
 462 29 463 26 463 13 c 0
 463 -2 452 -2 443 -2 c 0
 417 -2 391 0 363 0 c 0
 334 0 297 -2 281 -2 c 0
 268 -2 263 6 263 16 c 0
 263 29 275 29 288 30 c 0
 294 30 295 33 295 37 c 0
 295 46 283 61 279 66 c 2
 208 160 l 25
 136 66 l 2
 130 58 127 52 127 46 c 0
 127 15 175 38 175 14 c 0
 175 -1 161 -2 152 -2 c 0
 126 -2 111 0 83 0 c 0
 54 0 45 -2 29 -2 c 0
 16 -2 10 1 10 11 c 0
 10 23 20 26 30 28 c 0
 62 34 77 46 107 79 c 2
 195 177 l 1
EndSplineSet
EndChar

StartChar: y
Encoding: 121 121 24
Width: 452
VWidth: 0
Flags: W
HStem: -277 106<77.9826 143.859> 357 27<15.0088 42 163.005 197.896 301.026 342.131 407.179 446.979>
VStem: 349 98<318.5 373>
DStem2: 169 325 68 328 0.420461 -0.907311<-19.5896 227.221> 220 0 182 -177 0.379511 0.925187<-181.458 0 127.235 347.401>
LayerCount: 3
Fore
SplineSet
220 0 m 1
 165 125 l 2
 136 193 103 257 68 328 c 0
 61 342 53 350 42 353 c 2
 25 357 l 2
 18 359 15 364 15 371 c 0
 15 377 17 384 23 384 c 0
 56 384 77 382 94 382 c 0
 117 382 147 383 184 384 c 0
 197 384 198 374 198 368 c 0
 198 363 194 361 188 359 c 0
 170 354 163 352 163 344 c 0
 163 340 165 334 169 325 c 0
 186 283 227 196 247 151 c 0
 256 131 263 119 265 119 c 0
 268 119 272 128 280 144 c 0
 296 176 318 237 341 293 c 0
 346 304 349 314 349 323 c 0
 349 341 338 353 315 358 c 0
 307 360 301 365 301 371 c 0
 301 376 305 383 314 383 c 0
 336 383 354 382 374 382 c 0
 394 382 409 383 426 383 c 0
 441 383 447 376 447 370 c 0
 447 366 446 361 439 359 c 0
 405 348 391 333 378 304 c 2
 309 147 l 2
 298 122 268 40 250 -6 c 0
 248 -10 221 -77 193 -147 c 0
 189 -157 186 -167 182 -177 c 0
 168 -213 150 -277 104 -277 c 0
 80 -277 58 -260 58 -238 c 0
 58 -192 96 -180 122 -171 c 0
 141 -164 155 -147 164 -128 c 0
 190 -76 220 0 220 0 c 1
EndSplineSet
EndChar

StartChar: z
Encoding: 122 122 25
Width: 374
VWidth: 0
Flags: W
HStem: -2 31<144.806 257.377> 353 26<113.909 227.996>
VStem: 35 28<248.071 293.14> 315 29<84.6108 140.977>
DStem2: 31 30 146 53 0.529906 0.848057<60.799 371.993>
LayerCount: 3
Fore
SplineSet
337 17 m 0
 337 7 332 -2 310 -2 c 0
 302 -2 262 0 158 0 c 0
 113 0 54 -2 43 -2 c 0
 30 -2 26 5 26 13 c 0
 26 19 28 26 31 30 c 0
 78 100 144 203 186 272 c 0
 203 300 228 337 228 346 c 0
 228 353 223 353 209 353 c 2
 202 353 l 2
 192 353 131 353 106 336 c 0
 78 317 76 281 63 258 c 0
 60 253 55 248 48 248 c 0
 35 248 34 259 35 271 c 0
 37 291 39 301 40 356 c 0
 40 372 43 380 58 380 c 0
 64 380 163 379 208 379 c 0
 262 379 312 381 322 381 c 0
 330 381 336 376 336 368 c 0
 336 360 333 352 330 348 c 0
 293 301 213 170 146 53 c 0
 143 47 133 29 148 29 c 0
 199 29 229 31 262 46 c 0
 298 62 308 96 315 125 c 0
 317 133 318 141 329 141 c 0
 336 141 344 136 344 129 c 0
 344 112 340 97 339 84 c 0
 337 63 338 43 337 17 c 0
EndSplineSet
EndChar

StartChar: zero
Encoding: 48 48 52
Width: 236
VWidth: 0
Flags: W
HStem: 174 112<75.9218 164.078>
VStem: 64 112<185.922 274.078>
LayerCount: 3
Fore
SplineSet
64 230 m 0
 64 261 89 286 120 286 c 0
 151 286 176 261 176 230 c 0
 176 199 151 174 120 174 c 0
 89 174 64 199 64 230 c 0
EndSplineSet
EndChar

StartChar: one
Encoding: 49 49 53
Width: 236
VWidth: 0
Flags: W
HStem: 174 112<75.9218 164.078>
VStem: 64 112<185.922 274.078>
LayerCount: 3
Fore
SplineSet
64 230 m 0
 64 261 89 286 120 286 c 0
 151 286 176 261 176 230 c 0
 176 199 151 174 120 174 c 0
 89 174 64 199 64 230 c 0
EndSplineSet
EndChar

StartChar: two
Encoding: 50 50 54
Width: 236
VWidth: 0
Flags: W
HStem: 174 112<75.9218 164.078>
VStem: 64 112<185.922 274.078>
LayerCount: 3
Fore
SplineSet
64 230 m 0
 64 261 89 286 120 286 c 0
 151 286 176 261 176 230 c 0
 176 199 151 174 120 174 c 0
 89 174 64 199 64 230 c 0
EndSplineSet
EndChar

StartChar: three
Encoding: 51 51 55
Width: 236
VWidth: 0
Flags: W
HStem: 174 112<75.9218 164.078>
VStem: 64 112<185.922 274.078>
LayerCount: 3
Fore
SplineSet
64 230 m 0
 64 261 89 286 120 286 c 0
 151 286 176 261 176 230 c 0
 176 199 151 174 120 174 c 0
 89 174 64 199 64 230 c 0
EndSplineSet
EndChar

StartChar: four
Encoding: 52 52 56
Width: 236
VWidth: 0
Flags: W
HStem: 174 112<75.9218 164.078>
VStem: 64 112<185.922 274.078>
LayerCount: 3
Fore
SplineSet
64 230 m 0
 64 261 89 286 120 286 c 0
 151 286 176 261 176 230 c 0
 176 199 151 174 120 174 c 0
 89 174 64 199 64 230 c 0
EndSplineSet
EndChar

StartChar: five
Encoding: 53 53 57
Width: 236
VWidth: 0
Flags: W
HStem: 174 112<75.9218 164.078>
VStem: 64 112<185.922 274.078>
LayerCount: 3
Fore
SplineSet
64 230 m 0
 64 261 89 286 120 286 c 0
 151 286 176 261 176 230 c 0
 176 199 151 174 120 174 c 0
 89 174 64 199 64 230 c 0
EndSplineSet
EndChar

StartChar: six
Encoding: 54 54 58
Width: 236
VWidth: 0
Flags: W
HStem: 174 112<75.9218 164.078>
VStem: 64 112<185.922 274.078>
LayerCount: 3
Fore
SplineSet
64 230 m 0
 64 261 89 286 120 286 c 0
 151 286 176 261 176 230 c 0
 176 199 151 174 120 174 c 0
 89 174 64 199 64 230 c 0
EndSplineSet
EndChar

StartChar: seven
Encoding: 55 55 59
Width: 236
VWidth: 0
Flags: W
HStem: 174 112<75.9218 164.078>
VStem: 64 112<185.922 274.078>
LayerCount: 3
Fore
SplineSet
64 230 m 0
 64 261 89 286 120 286 c 0
 151 286 176 261 176 230 c 0
 176 199 151 174 120 174 c 0
 89 174 64 199 64 230 c 0
EndSplineSet
EndChar

StartChar: eight
Encoding: 56 56 60
Width: 236
VWidth: 0
Flags: W
HStem: 174 112<75.9218 164.078>
VStem: 64 112<185.922 274.078>
LayerCount: 3
Fore
SplineSet
64 230 m 0
 64 261 89 286 120 286 c 0
 151 286 176 261 176 230 c 0
 176 199 151 174 120 174 c 0
 89 174 64 199 64 230 c 0
EndSplineSet
EndChar

StartChar: nine
Encoding: 57 57 61
Width: 236
VWidth: 0
Flags: W
HStem: 174 112<75.9218 164.078>
VStem: 64 112<185.922 274.078>
LayerCount: 3
Fore
SplineSet
64 230 m 0
 64 261 89 286 120 286 c 0
 151 286 176 261 176 230 c 0
 176 199 151 174 120 174 c 0
 89 174 64 199 64 230 c 0
EndSplineSet
EndChar

